<mxfile host="65bd71144e">
    <diagram id="l7rp6skISjBQSKJhK9_i" name="Página-1">
        <mxGraphModel dx="1386" dy="581" grid="1" gridSize="10" guides="1" tooltips="1" connect="1" arrows="1" fold="1" page="1" pageScale="1" pageWidth="827" pageHeight="1169" math="0" shadow="0">
            <root>
                <mxCell id="0"/>
                <mxCell id="1" parent="0"/>
                <mxCell id="4" value="CLIENTE" style="rounded=0;whiteSpace=wrap;html=1;" vertex="1" parent="1">
                    <mxGeometry x="150" y="120" width="160" height="40" as="geometry"/>
                </mxCell>
                <mxCell id="5" value="" style="rounded=0;whiteSpace=wrap;html=1;" vertex="1" parent="1">
                    <mxGeometry x="150" y="280" width="160" height="40" as="geometry"/>
                </mxCell>
                <mxCell id="7" value="nome: string&lt;br&gt;datanascimento: date&lt;br&gt;cpf: string&lt;br&gt;email: string&lt;br&gt;telefone: string" style="rounded=0;whiteSpace=wrap;html=1;" vertex="1" parent="1">
                    <mxGeometry x="150" y="160" width="160" height="120" as="geometry"/>
                </mxCell>
                <mxCell id="8" value="CURSO" style="rounded=0;whiteSpace=wrap;html=1;" vertex="1" parent="1">
                    <mxGeometry x="520" y="140" width="160" height="40" as="geometry"/>
                </mxCell>
                <mxCell id="9" value="" style="rounded=0;whiteSpace=wrap;html=1;" vertex="1" parent="1">
                    <mxGeometry x="520" y="260" width="160" height="40" as="geometry"/>
                </mxCell>
                <mxCell id="10" value="nome: string&lt;br&gt;descricao: string&lt;br&gt;cargahoraria: string" style="rounded=0;whiteSpace=wrap;html=1;" vertex="1" parent="1">
                    <mxGeometry x="520" y="180" width="160" height="80" as="geometry"/>
                </mxCell>
                <mxCell id="11" value="CURSO" style="rounded=0;whiteSpace=wrap;html=1;" vertex="1" parent="1">
                    <mxGeometry x="337" y="360" width="154" height="40" as="geometry"/>
                </mxCell>
                <mxCell id="12" value="" style="rounded=0;whiteSpace=wrap;html=1;" vertex="1" parent="1">
                    <mxGeometry x="337" y="440" width="154" height="40" as="geometry"/>
                </mxCell>
                <mxCell id="13" value="datainscricao: date&lt;br&gt;datacancelamento: date" style="rounded=0;whiteSpace=wrap;html=1;" vertex="1" parent="1">
                    <mxGeometry x="337" y="400" width="154" height="40" as="geometry"/>
                </mxCell>
                <mxCell id="14" value="" style="endArrow=none;html=1;exitX=1.025;exitY=0.45;exitDx=0;exitDy=0;exitPerimeter=0;entryX=-0.019;entryY=0.413;entryDx=0;entryDy=0;entryPerimeter=0;" edge="1" parent="1" source="7" target="10">
                    <mxGeometry width="50" height="50" relative="1" as="geometry">
                        <mxPoint x="400" y="245" as="sourcePoint"/>
                        <mxPoint x="450" y="195" as="targetPoint"/>
                    </mxGeometry>
                </mxCell>
                <mxCell id="15" value="" style="endArrow=none;dashed=1;html=1;exitX=0.5;exitY=0;exitDx=0;exitDy=0;" edge="1" parent="1" source="11">
                    <mxGeometry width="50" height="50" relative="1" as="geometry">
                        <mxPoint x="400" y="300" as="sourcePoint"/>
                        <mxPoint x="414" y="220" as="targetPoint"/>
                    </mxGeometry>
                </mxCell>
                <mxCell id="16" value="0 - *" style="text;html=1;strokeColor=none;fillColor=none;align=center;verticalAlign=middle;whiteSpace=wrap;rounded=0;" vertex="1" parent="1">
                    <mxGeometry x="337" y="180" width="60" height="30" as="geometry"/>
                </mxCell>
                <mxCell id="17" value="0 - *" style="text;html=1;strokeColor=none;fillColor=none;align=center;verticalAlign=middle;whiteSpace=wrap;rounded=0;" vertex="1" parent="1">
                    <mxGeometry x="440" y="230" width="60" height="30" as="geometry"/>
                </mxCell>
                <mxCell id="18" value="Esquema Conceitual na Notação do Diagrama de Classes UML" style="text;strokeColor=none;fillColor=none;html=1;fontSize=24;fontStyle=1;verticalAlign=middle;align=center;" vertex="1" parent="1">
                    <mxGeometry x="364" y="30" width="100" height="40" as="geometry"/>
                </mxCell>
            </root>
        </mxGraphModel>
    </diagram>
</mxfile>